<svg xmlns="http://www.w3.org/2000/svg" width="85" height="76" fill="none"><g clip-path="url(#a)"><path fill="url(#b)" d="M70.75 14.913H14.684V75.09H70.75V14.913Z"/><path fill="url(#c)" d="M14.45 14.913c.068 0 .136.03.232.058v60.09c-4.34.338-8.004-.755-10.913-3.558-2.06-1.991-3.055-4.33-3.055-6.98v-28.12c0-3.577-.01-7.154-.01-10.73 0-4.322 2.33-7.463 6.612-9.59 2.204-1.083 4.65-1.247 7.134-1.17Z"/><path fill="#fff" d="M60.958 14.903h5.25V75.07H19.225V14.923h5.578v-.629c0-2.155.01-4.32-.01-6.476-.02-1.508.387-2.823 1.566-3.848.832-.715 1.789-1.083 2.871-1.083 3.355-.01 6.7-.01 10.054-.01 5.636 0 11.281.01 16.917 0 1.479 0 2.707.484 3.673 1.606.774.899 1.064 1.952 1.064 3.132-.01 2.271 0 4.543 0 6.815-.01.125 0 .27.02.473Zm-30.103 0h8.594c4.988 0 9.986 0 14.974.01.397 0 .484-.126.484-.503-.02-1.691 0-3.383 0-5.075 0-.135-.02-.27-.04-.415H30.856v5.983Z"/><mask id="d" width="48" height="74" x="19" y="2" maskUnits="userSpaceOnUse" style="mask-type:alpha"><path fill="#F7F9FC" d="M60.958 14.903h5.25V75.07H19.225V14.923h5.578v-.629c0-2.155.01-4.32-.01-6.476-.02-1.508.387-2.823 1.566-3.848.832-.715 1.789-1.083 2.871-1.083 3.355-.01 6.7-.01 10.054-.01 5.636 0 11.281.01 16.917 0 1.479 0 2.707.484 3.673 1.606.774.899 1.064 1.952 1.064 3.132-.01 2.271 0 4.543 0 6.815-.01.125 0 .27.02.473Zm-30.103 0h8.594c4.988 0 9.986 0 14.974.01.397 0 .484-.126.484-.503-.02-1.691 0-3.383 0-5.075 0-.135-.02-.27-.04-.415H30.856v5.983Z"/></mask><g mask="url(#d)"><path fill="url(#e)" d="M61.922.152H22.84v14.77h39.083V.153Z"/></g><path fill="url(#f)" d="M85 25.518c0-3.983-2.176-6.95-6.042-9.107-2.379-1.324-5.076-1.575-7.84-1.517-.426.01-.368.232-.368.464v20.87c0 12.23 0 24.448-.01 36.677v2.175c1.74.058 3.394.067 5.018-.32 5.49-1.294 9.232-5.384 9.232-10.207.02-13.002.01-26.024.01-39.035Z"/><path fill="url(#g)" d="M47.299 49.443V57.08c0 .803-.406 1.228-1.2 1.228-2.184.01-4.368.01-6.553 0-.725 0-1.131-.455-1.131-1.218v-7.647H30.865c-.938 0-1.324-.377-1.324-1.314v-6.236c0-.947.377-1.324 1.314-1.324h7.55v-7.598c0-.89.396-1.276 1.286-1.276h6.235c.976 0 1.353.367 1.353 1.363.01 2.378 0 4.746 0 7.124v.397h.416c2.397 0 4.795 0 7.192.01.88 0 1.257.386 1.257 1.266v6.264c0 .957-.367 1.324-1.305 1.324-2.388 0-4.776 0-7.154.01-.096-.01-.212-.01-.386-.01Z"/></g><defs><linearGradient id="b" x1="14.684" x2="70.748" y1="44.998" y2="44.998" gradientUnits="userSpaceOnUse"><stop stop-color="#B0F4FF"/><stop offset="1" stop-color="#69DCFC"/></linearGradient><linearGradient id="c" x1=".714" x2="14.684" y1="45.007" y2="45.007" gradientUnits="userSpaceOnUse"><stop stop-color="#6CBCFC"/><stop offset="1" stop-color="#458DFC"/></linearGradient><linearGradient id="e" x1="22.835" x2="61.92" y1="7.536" y2="7.536" gradientUnits="userSpaceOnUse"><stop stop-color="#6CBCFC"/><stop offset="1" stop-color="#458DFC"/></linearGradient><linearGradient id="f" x1="70.743" x2="85" y1="45.001" y2="45.001" gradientUnits="userSpaceOnUse"><stop stop-color="#6CBCFC"/><stop offset="1" stop-color="#458DFC"/></linearGradient><linearGradient id="g" x1="29.547" x2="56.163" y1="45.011" y2="45.011" gradientUnits="userSpaceOnUse"><stop stop-color="#6CBCFC"/><stop offset="1" stop-color="#458DFC"/></linearGradient><clipPath id="a"><path fill="#fff" d="M.714.152H85v74.967H.714z"/></clipPath></defs></svg>