<svg xmlns="http://www.w3.org/2000/svg" width="72" height="100" fill="none"><g clip-path="url(#a)"><path fill="url(#b)" d="M71.427 95.262c0 2.585-2.114 4.685-4.726 4.685l-61.112.069a4.732 4.732 0 0 1-4.481-3.164 4.533 4.533 0 0 1-.254-1.504L.758 8.136c0-2.585 2.114-4.685 4.726-4.685L61.6 3.39l4.996-.009c2.612 0 4.735 2.092 4.735 4.677l.096 87.204Z"/><path fill="#fff" d="m65.094 94.76-57.907.061c-1.406 0-2.542-1.124-2.542-2.515l-.087-81.162c0-1.392 1.136-2.515 2.542-2.515l57.898-.061c1.406 0 2.542 1.124 2.542 2.516l.087 81.161c.009 1.383-1.127 2.516-2.533 2.516Z"/><path fill="url(#c)" d="m56.961 15.259-42.235.051c-1.398 0-2.542-1.123-2.542-2.506l-.009-6.968a2.53 2.53 0 0 1 2.534-2.515l42.243-.043c1.398 0 2.543 1.123 2.543 2.506l.008 6.968a2.535 2.535 0 0 1-2.542 2.507ZM14.71 4.6c-.682 0-1.24.553-1.24 1.228l.008 6.967c0 .674.559 1.228 1.24 1.228l42.244-.044c.682 0 1.24-.553 1.24-1.227l-.008-6.968c0-.674-.56-1.227-1.24-1.227L14.708 4.6Z"/><path fill="url(#d)" d="m55.765 6.294-39.44.044a.779.779 0 0 1-.786-.778V1.782c0-.432.349-.778.786-.778L55.756.961c.437 0 .786.346.786.778v3.777a.766.766 0 0 1-.777.778Z"/><path fill="#58D6F4" d="m16.36 6.338 39.37-.043a.816.816 0 0 0 .82-.813v-1.85l-41.02.043v1.85c0 .45.375.813.83.813ZM30.196 85.632l-3.407-20.4-2.76 8.877-7.897.009a.857.857 0 1 1 0-1.712l6.63-.008 4.552-14.618 3.406 20.453 4.42-14.047 2.35 6.656 5.294-12.699 5.145 20.141 1.94-6.405 5.677-.009a.857.857 0 1 1 0 1.712l-4.394.009-3.363 11.108-5.398-21.127-5.04 12.076-2.123-6.008-5.032 15.992Z"/><path fill="url(#e)" d="m24.344 46.3-11.103.009c-1.79 0-3.258-1.444-3.258-3.216l-.018-15.36c0-1.773 1.46-3.225 3.25-3.225l11.102-.009c1.791 0 3.259 1.444 3.259 3.216l.017 15.361c0 1.772-1.459 3.216-3.25 3.224ZM13.206 25.442a2.3 2.3 0 0 0-2.306 2.29l.018 15.361c0 1.262 1.039 2.282 2.314 2.282l11.103-.008a2.3 2.3 0 0 0 2.306-2.291l-.017-15.36c0-1.263-1.04-2.283-2.315-2.283l-11.103.009Z"/><path fill="url(#f)" d="M18.779 43.353c5.25-.009 6.884-3.009 6.884-3.009-.236-.294-.533-.553-.935-.812-1.38-.89-2.49-1.27-2.953-1.651a2.942 2.942 0 0 1-.733-.916l-.289.172s-.175-.596-.078-1.504c0 0 .41-.104.716-1.478.49.095 1.066-1.132.795-1.582-.175-.294-.384-.268-.533-.199.149-.613.821-4.01-2.883-4.01-3.704 0-3.03 3.397-2.874 4.01-.148-.069-.358-.095-.533.2-.27.449.315 1.676.804 1.581.306 1.374.725 1.47.725 1.47.105.899-.078 1.504-.078 1.504l-.289-.173s-.262.536-.733.916c-.472.38-1.573.77-2.953 1.66-.402.26-.708.519-.935.812-.008.018 1.634 3.017 6.875 3.009Z"/><path fill="url(#g)" d="m53.354 29.4-21.376.027a.72.72 0 0 1-.725-.718v-.12a.72.72 0 0 1 .725-.718l21.376-.026a.72.72 0 0 1 .725.717v.121a.725.725 0 0 1-.725.718Z"/><path fill="url(#h)" d="m45.492 33.43-13.514.016a.72.72 0 0 1-.725-.717v-.121a.72.72 0 0 1 .725-.718l13.514-.017a.72.72 0 0 1 .725.717v.122a.72.72 0 0 1-.725.717Z"/><path fill="url(#i)" d="m60.726 38.218-28.739.034a.72.72 0 0 1-.725-.717v-.121a.72.72 0 0 1 .725-.717l28.74-.035a.72.72 0 0 1 .725.718v.12a.731.731 0 0 1-.726.718Z" opacity=".6"/><path fill="url(#j)" d="m60.106 51.677-47.94.052a.747.747 0 0 1-.75-.743v-.07c0-.406.332-.743.75-.743l47.94-.052c.41 0 .751.329.751.744v.069c0 .415-.34.743-.75.743Z" opacity=".6"/><path fill="url(#k)" d="m60.726 42.92-28.739.035a.72.72 0 0 1-.725-.717v-.121a.72.72 0 0 1 .725-.718l28.74-.035a.72.72 0 0 1 .725.718v.121a.72.72 0 0 1-.726.717Z" opacity=".6"/></g><defs><linearGradient id="b" x1="-9.028" x2="81.031" y1="37.189" y2="66.759" gradientUnits="userSpaceOnUse"><stop stop-color="#6CBCFC"/><stop offset=".171" stop-color="#5EABFC"/><stop offset=".408" stop-color="#509AFC"/><stop offset=".67" stop-color="#4890FC"/><stop offset="1" stop-color="#458DFC"/></linearGradient><linearGradient id="c" x1="-4.747" x2="59.241" y1="-21.325" y2="9.815" gradientUnits="userSpaceOnUse"><stop stop-color="#CFE9FF"/><stop offset="1" stop-color="#A1D6FB"/></linearGradient><linearGradient id="d" x1="15.529" x2="56.55" y1="3.65" y2="3.65" gradientUnits="userSpaceOnUse"><stop stop-color="#B0F4FF"/><stop offset="1" stop-color="#69DCFC"/></linearGradient><linearGradient id="e" x1="15.65" x2="25.821" y1="31.413" y2="44.679" gradientUnits="userSpaceOnUse"><stop stop-color="#6CBCFC"/><stop offset="1" stop-color="#458DFC"/></linearGradient><linearGradient id="f" x1="14.533" x2="24.703" y1="32.269" y2="45.536" gradientUnits="userSpaceOnUse"><stop stop-color="#B0F4FF"/><stop offset=".099" stop-color="#A1EFFE"/><stop offset=".299" stop-color="#88E7FD"/><stop offset=".509" stop-color="#77E1FD"/><stop offset=".734" stop-color="#6CDDFC"/><stop offset="1" stop-color="#69DCFC"/></linearGradient><linearGradient id="g" x1="31.255" x2="54.074" y1="28.643" y2="28.657" gradientUnits="userSpaceOnUse"><stop stop-color="#6CBCFC"/><stop offset="1" stop-color="#458DFC"/></linearGradient><linearGradient id="h" x1="31.259" x2="46.216" y1="32.66" y2="32.66" gradientUnits="userSpaceOnUse"><stop stop-color="#6CBCFC"/><stop offset="1" stop-color="#458DFC"/></linearGradient><linearGradient id="i" x1="31.264" x2="61.447" y1="37.462" y2="37.462" gradientUnits="userSpaceOnUse"><stop stop-color="#6CBCFC"/><stop offset="1" stop-color="#458DFC"/></linearGradient><linearGradient id="j" x1="11.415" x2="60.855" y1="50.93" y2="50.93" gradientUnits="userSpaceOnUse"><stop stop-color="#6CBCFC"/><stop offset="1" stop-color="#458DFC"/></linearGradient><linearGradient id="k" x1="31.269" x2="61.451" y1="42.163" y2="42.163" gradientUnits="userSpaceOnUse"><stop stop-color="#6CBCFC"/><stop offset="1" stop-color="#458DFC"/></linearGradient><clipPath id="a"><path fill="#fff" d="M.758.96h70.67v99.048H.757z"/></clipPath></defs></svg>