<svg xmlns="http://www.w3.org/2000/svg" width="68" height="92" fill="none"><g clip-path="url(#a)"><path fill="url(#b)" d="m67.33 28.979-.207 42.724-.035 8.264c-.034 6.566-6.346 11.864-14.115 11.83l-38.808-.172C6.415 91.573.137 86.225.172 79.64l.242-50.988c.018-5.315 4.18-9.806 9.867-11.298l.017-2.743v-1.406l47.288.223-.018 4.149c5.67 1.56 9.78 6.069 9.763 11.401Z"/><path fill="url(#c)" d="M61.106 2.457v.377L61.07 7.29l-.035 4.372v.532c0 .822-.693 1.491-1.526 1.491h-.364l-2.289-.017-2.514-.017-2.29-.017-2.514-.017-2.323-.035-2.514-.017-2.29-.017-2.531-.017-2.306-.017-2.515-.017-2.289-.035-2.514-.017-2.289-.017-2.532-.017-2.306-.017-2.497-.018-2.289-.017-2.514-.017-2.306-.017-2.515-.017-2.306-.017h-.364a1.516 1.516 0 0 1-1.509-1.509v-.394l.07-8.812v-.532c0-.823.693-1.492 1.543-1.492h.364l4.82.035 4.821.034 2.306.017 2.515.017 2.289.017 4.803.052 2.514.017 2.29.017 2.514.017 2.289.017 2.514.018 2.289.017 2.514.017 2.29.017 2.548.034 2.29.018 2.514.017 2.306.017h.364c.85.017 1.509.686 1.509 1.509Z"/><path fill="url(#d)" d="m61.106 2.85-.035 4.441-.035 4.372-2.063-.017-2.74-.017-2.514-.017H50.96l-2.514-.018-2.74-.017-2.514-.017h-2.757l-2.514-.017-2.758-.017-2.497-.017H29.91l-2.514-.018-2.757-.017-2.515-.017h-2.74l-2.514-.017-2.757-.017-2.514-.017h-2.74l-2.029-.017.07-8.813 4.82.018 5.254.034 2.515.017 2.757.017h2.514l5.254.034 2.757.018h2.515l2.757.017 2.497.017 2.757.017h2.514l2.758.017 2.496.017 2.758.017h2.514l2.757.018 2.012.017Z"/><path fill="#F7F9FC" d="M67.28 38 .363 37.687.223 67.02l66.917.313L67.28 38Z"/><path fill="#FBFCF7" d="M67.292 38 .375 37.687l-.025 5.28 66.916.313.026-5.28Z"/><path fill="url(#e)" d="m26.46 49.481-4.318-.017.017-4.286-5.947-.017-.018 4.27-4.317-.018-.035 5.863 4.318.017-.018 4.287 5.948.017.017-4.27 4.318.018.035-5.864Z"/><path fill="url(#f)" d="m55.8 50.904-21.398-.102c-.572 0-1.04-.463-1.04-1.029v-.48c0-.566.468-1.029 1.04-1.029l21.398.103c.572 0 1.04.463 1.04 1.029v.48c0 .566-.468 1.029-1.04 1.029Z"/><path fill="url(#g)" d="m55.782 57.197-21.398-.103c-.572 0-1.04-.463-1.04-1.029v-.48c0-.566.468-1.029 1.04-1.029l21.398.103c.573 0 1.04.463 1.04 1.029v.48c0 .566-.468 1.029-1.04 1.029Z" opacity=".5"/><path fill="#1A6FB5" d="M6.83 2.456v.378l.035 4.457.034 4.355v.531c0 .823.694 1.492 1.526 1.492h.365l2.306-.017 2.514-.017 2.29-.018 2.513-.017 2.29-.017 2.514-.017 2.289-.017 2.514-.017 2.306-.017 2.515-.018 2.289-.017 2.514-.017 2.289-.017 2.514-.017 2.307-.017 2.514-.017 2.289-.018 2.514-.017 2.29-.017 2.514-.017 2.306-.017h.364c.832 0 1.509-.686 1.509-1.509v-.394C34.228 12.555 8.339.948 8.339.948c-.833.017-1.509.686-1.509 1.508Z" opacity=".08"/></g><defs><linearGradient id="b" x1=".172" x2="61.287" y1="12.719" y2="98.032" gradientUnits="userSpaceOnUse"><stop stop-color="#6CBCFC"/><stop offset="1" stop-color="#458DFC"/></linearGradient><linearGradient id="c" x1="-683.753" x2="-29.871" y1="-42.31" y2="3.754" gradientUnits="userSpaceOnUse"><stop stop-color="#B0F4FF"/><stop offset=".053" stop-color="#A9F2FF"/><stop offset=".288" stop-color="#8DE8FE"/><stop offset=".525" stop-color="#79E1FD"/><stop offset=".762" stop-color="#6DDDFC"/><stop offset="1" stop-color="#69DCFC"/></linearGradient><linearGradient id="d" x1="6.838" x2="61.108" y1="7.115" y2="7.115" gradientUnits="userSpaceOnUse"><stop stop-color="#B0F4FF"/><stop offset=".053" stop-color="#A9F2FF"/><stop offset=".288" stop-color="#8DE8FE"/><stop offset=".525" stop-color="#79E1FD"/><stop offset=".762" stop-color="#6DDDFC"/><stop offset="1" stop-color="#69DCFC"/></linearGradient><linearGradient id="e" x1="24.033" x2="13.981" y1="46.814" y2="58.539" gradientUnits="userSpaceOnUse"><stop stop-color="#6CBCFC"/><stop offset="1" stop-color="#458DFC"/></linearGradient><linearGradient id="f" x1="57.047" x2="31.534" y1="49.579" y2="49.579" gradientUnits="userSpaceOnUse"><stop stop-color="#6CBCFC"/><stop offset="1" stop-color="#458DFC"/></linearGradient><linearGradient id="g" x1="33.342" x2="56.823" y1="55.87" y2="55.87" gradientUnits="userSpaceOnUse"><stop stop-color="#6CBCFC"/><stop offset="1" stop-color="#458DFC"/></linearGradient><clipPath id="a"><path fill="#fff" d="M.171.553h67.16v91.243H.17z"/></clipPath></defs></svg>